<svg width="606" height="123" viewBox="0 0 606 123" fill="none" xmlns="http://www.w3.org/2000/svg">
<path d="M68.352 70.5761C68.352 75.0987 67.2 79.1521 64.896 82.7361C62.592 86.2347 59.4773 89.0081 55.552 91.0561C51.712 93.0187 47.488 94.0001 42.88 94.0001H0V3.12006H43.776C48.0427 3.12006 51.712 4.27206 54.784 6.57606C57.9413 8.79473 60.3307 11.6961 61.952 15.2801C63.6587 18.7787 64.512 22.4481 64.512 26.2881C64.512 30.8107 63.36 34.9921 61.056 38.8321C58.752 42.6721 55.552 45.5307 51.456 47.4081C56.6613 48.9441 60.7573 51.8027 63.744 55.9841C66.816 60.1654 68.352 65.0294 68.352 70.5761ZM59.392 69.0401C59.392 65.9681 58.7093 63.1521 57.344 60.5921C55.9787 57.9467 54.1013 55.8134 51.712 54.1921C49.408 52.5707 46.7627 51.7601 43.776 51.7601H8.96V86.1921H42.88C45.952 86.1921 48.7253 85.3814 51.2 83.7601C53.6747 82.1387 55.6373 80.0481 57.088 77.4881C58.624 74.8427 59.392 72.0267 59.392 69.0401ZM8.96 10.9281V44.4641H40.192C43.1787 44.4641 45.824 43.6961 48.128 42.1601C50.432 40.5387 52.2667 38.4481 53.632 35.8881C54.9973 33.3281 55.68 30.5974 55.68 27.6961C55.68 24.6241 55.04 21.8507 53.76 19.3761C52.48 16.8161 50.7307 14.7681 48.512 13.2321C46.2933 11.6961 43.776 10.9281 40.96 10.9281H8.96Z" fill="#F6F7FF"/>
<path d="M111.874 95.2801C107.095 95.2801 102.658 94.3841 98.562 92.5921C94.5513 90.7147 91.0527 88.1974 88.066 85.0401C85.1647 81.7974 82.9033 78.1281 81.282 74.0321C79.6607 69.8507 78.85 65.4561 78.85 60.8481C78.85 56.0694 79.6607 51.6321 81.282 47.5361C82.9033 43.3547 85.2073 39.6854 88.194 36.5281C91.1807 33.2854 94.6793 30.7681 98.69 28.9761C102.786 27.0987 107.223 26.1601 112.002 26.1601C116.781 26.1601 121.175 27.0987 125.186 28.9761C129.197 30.7681 132.695 33.2854 135.682 36.5281C138.669 39.6854 140.973 43.3547 142.594 47.5361C144.215 51.6321 145.026 56.0694 145.026 60.8481C145.026 65.4561 144.215 69.8507 142.594 74.0321C140.973 78.1281 138.669 81.7974 135.682 85.0401C132.781 88.1974 129.282 90.7147 125.186 92.5921C121.175 94.3841 116.738 95.2801 111.874 95.2801ZM87.682 60.9761C87.682 65.9254 88.7487 70.4481 90.882 74.5441C93.1007 78.5547 96.0447 81.7547 99.714 84.1441C103.383 86.4481 107.437 87.6001 111.874 87.6001C116.311 87.6001 120.365 86.4054 124.034 84.0161C127.703 81.6267 130.647 78.3841 132.866 74.2881C135.085 70.1067 136.194 65.5841 136.194 60.7201C136.194 55.7707 135.085 51.2481 132.866 47.1521C130.647 43.0561 127.703 39.8134 124.034 37.4241C120.365 35.0347 116.311 33.8401 111.874 33.8401C107.437 33.8401 103.383 35.0774 99.714 37.5521C96.13 40.0267 93.2287 43.3121 91.01 47.4081C88.7913 51.4187 87.682 55.9414 87.682 60.9761Z" fill="#F6F7FF"/>
<path d="M154.207 74.8001C154.207 70.6187 155.402 67.0347 157.791 64.0481C160.18 60.9761 163.466 58.6294 167.647 57.0081C171.914 55.3014 267.82 54.4481 273.367 54.4481C276.61 54.4481 279.98 54.7041 283.479 55.2161C286.978 55.7281 290.092 56.4961 292.823 57.5201V51.8881C292.823 46.2561 291.159 41.7761 287.831 38.4481C284.503 35.1201 279.895 33.4561 274.007 33.4561C270.423 33.4561 175.882 34.1387 172.383 35.5041C168.97 36.7841 165.386 38.7041 161.631 41.2641L158.303 35.1201C162.655 32.1334 166.922 29.9147 171.103 28.4641C177.295 26.3157 270.551 26.1601 274.903 26.1601C283.095 26.1601 289.58 28.5067 294.359 33.2001C299.138 37.8934 301.527 44.3787 301.527 52.6561V83.5041C301.527 84.6987 301.783 85.5947 302.295 86.1921C302.807 86.7041 303.618 87.0027 304.727 87.0881V94.0001C303.788 94.0854 302.978 94.1707 302.295 94.2561C301.612 94.3414 301.1 94.3414 300.759 94.2561C298.626 94.1707 297.004 93.4881 295.895 92.2081C294.786 90.9281 294.188 89.5627 294.103 88.1121L293.975 83.2481C290.988 87.0881 287.106 90.0747 282.327 92.2081C277.548 94.2561 181.684 95.2801 176.735 95.2801C172.468 95.2801 168.586 94.3841 165.087 92.5921C161.674 90.7147 158.986 88.2401 157.023 85.1681C155.146 82.0107 154.207 78.5547 154.207 74.8001ZM289.879 79.9201C290.818 78.7254 291.543 77.5734 292.055 76.4641C292.567 75.3547 292.823 74.3734 292.823 73.5201V63.7921C289.922 62.6827 286.892 61.8294 283.735 61.2321C280.663 60.6347 277.548 60.3361 274.391 60.3361C268.162 60.3361 172.127 61.5734 168.287 64.0481C164.447 66.5227 162.527 69.8934 162.527 74.1601C162.527 76.6347 163.167 78.9814 164.447 81.2001C165.727 83.3334 167.604 85.1254 170.079 86.5761C172.554 87.9414 175.455 88.6241 178.783 88.6241C182.964 88.6241 277.847 87.8134 281.431 86.1921C285.1 84.5707 287.916 82.4801 289.879 79.9201Z" fill="#F6F7FF"/>
<path d="M353.613 34.9921C347.81 35.1627 342.69 36.7841 338.253 39.8561C333.901 42.9281 330.829 47.1521 329.037 52.5281V94.0001H320.333V27.3121H328.525V43.3121C330.829 38.6187 333.858 34.8214 337.613 31.9201C341.453 29.0187 345.506 27.3974 349.773 27.0561C350.626 26.9707 351.352 26.9281 351.949 26.9281C352.632 26.9281 353.186 26.9707 353.613 27.0561V34.9921Z" fill="#FBDC38"/>
<path d="M358.853 60.8481C358.853 54.5334 360.133 48.7734 362.693 43.5681C365.338 38.2774 368.965 34.0534 373.573 30.8961C378.181 27.7387 383.429 26.1601 389.317 26.1601C394.864 26.1601 399.813 27.6534 404.165 30.6401C408.602 33.5414 412.058 37.0827 414.533 41.2641V0.560059H423.237V83.5041C423.237 84.6987 423.493 85.5947 424.005 86.1921C424.517 86.7041 425.285 87.0027 426.309 87.0881V94.0001C424.602 94.2561 423.28 94.3414 422.341 94.2561C420.549 94.1707 418.97 93.4454 417.605 92.0801C416.24 90.7147 415.557 89.2214 415.557 87.6001V81.0721C412.912 85.4241 409.328 88.8801 404.805 91.4401C400.282 94.0001 395.589 95.2801 390.725 95.2801C386.117 95.2801 381.85 94.3414 377.925 92.4641C374.085 90.5867 370.714 88.0267 367.813 84.7841C364.997 81.5414 362.778 77.8721 361.157 73.7761C359.621 69.5947 358.853 65.2854 358.853 60.8481ZM414.533 71.0881V50.4801C413.424 47.4081 411.632 44.6347 409.157 42.1601C406.682 39.6001 403.866 37.5947 400.709 36.1441C397.637 34.6081 394.565 33.8401 391.493 33.8401C387.909 33.8401 384.666 34.6081 381.765 36.1441C378.864 37.5947 376.346 39.6001 374.213 42.1601C372.165 44.7201 370.586 47.6214 369.477 50.8641C368.368 54.1067 367.813 57.4347 367.813 60.8481C367.813 64.4321 368.41 67.8454 369.605 71.0881C370.885 74.3307 372.677 77.2321 374.981 79.7921C377.285 82.2667 379.93 84.1867 382.917 85.5521C385.904 86.9174 389.146 87.6001 392.645 87.6001C394.864 87.6001 397.168 87.1734 399.557 86.3201C401.946 85.4667 404.208 84.3147 406.341 82.8641C408.56 81.3281 410.394 79.5361 411.845 77.4881C413.296 75.4401 414.192 73.3067 414.533 71.0881Z" fill="#FBDC38"/>
<path d="M442.958 94.0001V27.3121H451.662V94.0001H442.958ZM442.958 13.3601V0.560059H451.662V13.3601H442.958Z" fill="#FBDC38"/>
<path d="M526.897 94.0001H518.193V56.7521C518.193 48.9014 517.041 43.1841 514.737 39.6001C512.433 35.9307 508.806 34.0961 503.857 34.0961C500.444 34.0961 497.073 34.9494 493.745 36.6561C490.417 38.2774 487.473 40.5387 484.913 43.4401C482.438 46.2561 480.646 49.4987 479.537 53.1681V94.0001H470.833V27.3121H478.769V42.4161C480.561 39.1734 482.908 36.3574 485.809 33.9681C488.71 31.4934 491.996 29.5734 495.665 28.2081C499.334 26.8427 503.132 26.1601 507.057 26.1601C510.726 26.1601 513.841 26.8427 516.401 28.2081C518.961 29.5734 521.009 31.5361 522.545 34.0961C524.081 36.5707 525.19 39.6001 525.873 43.1841C526.556 46.6827 526.897 50.6081 526.897 54.9601V94.0001Z" fill="#F6F7FF"/>
<path d="M572.21 94.8961C567.687 94.8961 563.506 93.9574 559.666 92.0801C555.826 90.2027 552.498 87.6854 549.682 84.5281C546.951 81.2854 544.818 77.6161 543.282 73.5201C541.746 69.4241 540.978 65.2001 540.978 60.8481C540.978 56.1547 541.703 51.7601 543.154 47.6641C544.69 43.4827 546.823 39.7707 549.554 36.5281C552.37 33.2854 555.655 30.7681 559.41 28.9761C563.165 27.0987 567.346 26.1601 571.954 26.1601C577.671 26.1601 582.621 27.6107 586.802 30.5121C591.069 33.4134 594.653 36.9974 597.554 41.2641V27.3121H605.362V94.2561C605.362 100.4 603.869 105.563 600.882 109.744C597.981 114.011 594.013 117.211 588.978 119.344C584.029 121.477 578.61 122.544 572.722 122.544C565.127 122.544 558.983 121.179 554.29 118.448C549.597 115.717 545.757 112.048 542.77 107.44L548.146 103.216C550.791 107.397 554.29 110.512 558.642 112.56C563.079 114.608 567.773 115.632 572.722 115.632C577.074 115.632 581.042 114.821 584.626 113.2C588.295 111.664 591.197 109.317 593.33 106.16C595.549 103.003 596.658 99.0347 596.658 94.2561V81.0721C594.098 85.2534 590.599 88.6241 586.162 91.1841C581.725 93.6587 577.074 94.8961 572.21 94.8961ZM574.642 87.6001C577.287 87.6001 579.805 87.1307 582.194 86.1921C584.669 85.2534 586.93 84.0161 588.978 82.4801C591.026 80.8587 592.733 79.0667 594.098 77.1041C595.463 75.1414 596.317 73.1361 596.658 71.0881V50.4801C595.378 47.2374 593.543 44.3787 591.154 41.9041C588.765 39.3441 586.034 37.3814 582.962 36.0161C579.975 34.5654 576.861 33.8401 573.618 33.8401C569.863 33.8401 566.493 34.6507 563.506 36.2721C560.605 37.8081 558.13 39.8987 556.082 42.5441C554.119 45.1041 552.583 48.0054 551.474 51.2481C550.365 54.4907 549.81 57.7334 549.81 60.9761C549.81 64.5601 550.45 67.9734 551.73 71.2161C553.01 74.3734 554.759 77.2321 556.978 79.7921C559.282 82.2667 561.927 84.1867 564.914 85.5521C567.986 86.9174 571.229 87.6001 574.642 87.6001Z" fill="#F6F7FF"/>
</svg>
