<svg width="336" height="91" viewBox="0 0 336 91" fill="none" xmlns="http://www.w3.org/2000/svg">
<path d="M0.29541 90.88V0H17.9594V90.88H0.29541Z" fill="#F6F7FF"/>
<path d="M36.9204 90.88V0H69.9444C79.8431 0 88.1204 2.048 94.7764 6.144C101.432 10.1547 106.424 15.616 109.752 22.528C113.08 29.3547 114.744 36.9493 114.744 45.312C114.744 54.528 112.91 62.5493 109.24 69.376C105.571 76.2027 100.366 81.4933 93.6244 85.248C86.9684 89.0027 79.0751 90.88 69.9444 90.88H36.9204ZM96.9524 45.312C96.9524 39.424 95.8857 34.2613 93.7524 29.824C91.6191 25.3013 88.5471 21.8027 84.5364 19.328C80.5257 16.768 75.6617 15.488 69.9444 15.488H54.5844V75.392H69.9444C75.7471 75.392 80.6537 74.112 84.6644 71.552C88.6751 68.9067 91.7044 65.3227 93.7524 60.8C95.8857 56.192 96.9524 51.0293 96.9524 45.312Z" fill="#F6F7FF"/>
<path d="M146.209 22.528V90.88H128.545V0H146.209V6.144L317.601 64.904V0.127998H335.265V90.88H317.601V80.392L146.209 22.528Z" fill="#F6F7FF"/>
</svg>
