<svg width="57" height="41" viewBox="0 0 57 41" fill="none" xmlns="http://www.w3.org/2000/svg">
<path d="M2.88866 13.3552C1.72561 14.6345 0.795383 16.2578 0.544189 16.9556V2.13517H2.38627C3.05612 2.13517 4.85634 2.02031 6.53096 2.72129C8.33119 3.47485 9.10993 4.44483 9.62901 5.52628C10.1314 6.57295 10.0058 8.24753 10.0058 9.25231C9.92207 9.25231 9.43643 9.36954 8.16372 9.83843C6.65656 10.3937 4.56328 11.5131 2.88866 13.3552Z" fill="#315FE7"/>
<path fill-rule="evenodd" clip-rule="evenodd" d="M24.7502 0H34.2585V6.74035C34.4893 6.62871 35.1411 6.38473 35.6694 6.23796C36.2978 6.06343 36.7851 5.98516 37.2657 5.90796C37.3615 5.89257 37.4571 5.87723 37.5534 5.86117C38.307 5.73558 39.3536 5.69371 40.9026 5.69371C42.2842 5.69371 43.289 5.77744 44.3775 5.94491C45.466 6.11237 47.0987 6.69848 48.4384 7.4102C49.7781 8.12191 51.0062 8.83363 53.1274 11.22C54.802 13.1039 55.8486 15.7833 56.1835 17.4579C56.5185 19.1325 56.5185 19.8024 56.5185 20.1373V39.2699C55.8905 39.3257 54.3419 39.3955 53.1692 39.3955C51.7458 39.3955 49.6823 38.8093 48.564 37.3441C47.3499 35.7532 47.1406 33.9529 47.0569 33.1156C46.9899 32.4458 47.001 30.7712 47.015 30.0176V20.6397C47.015 19.2581 46.4707 18.044 46.4707 18.044C45.9265 16.7881 44.4193 14.6547 41.6562 14.2761C38.969 13.908 37.3509 15.0479 36.8789 15.3803C36.8656 15.3897 36.8532 15.3985 36.8417 15.4065C36.423 15.6996 35.2926 16.495 34.5809 18.4627C34.4429 18.8442 34.246 19.6768 34.246 19.928V24.9519C34.246 25.6642 34.0785 27.0033 33.7855 28.0499L33.7775 28.0785C33.4852 29.1225 33.0885 30.5398 31.6503 32.697C30.5618 34.3297 28.7198 36.1579 26.5846 37.3441C23.19 39.23 20.8828 39.2469 18.7751 39.2623C18.5434 39.264 18.314 39.2657 18.0859 39.2699C15.7833 39.3117 13.2295 39.0187 10.4664 37.5534C9.83003 37.2185 8.97318 36.6463 8.6243 36.3811C8.16378 37.4697 6.7734 39.0985 5.06573 39.8979C3.31776 40.716 2.26359 40.7083 0.64121 40.6964C0.437286 40.6949 0.224385 40.6933 0 40.6933C0 38.8093 0.00632423 25.5371 0.0418655 24.8263C0.156996 22.5237 0.759859 20.8909 1.38156 19.5093C2.00327 18.1278 3.17482 16.4486 4.56334 15.1135C5.65185 14.0668 7.3043 12.769 9.33601 11.7223C9.57008 11.6018 9.78961 11.4774 10.0138 11.3503C10.9928 10.7957 12.0613 10.1903 14.8204 9.62907C15.4647 9.49802 16.1091 9.38387 16.7436 9.27144C18.7066 8.92366 20.5761 8.59244 22.0631 7.82885C23.6122 7.03341 24.1067 6.27983 24.4835 5.35879C24.7774 4.64056 24.7633 3.73752 24.7534 3.09884C24.7517 2.99294 24.7502 2.89431 24.7502 2.80499V0ZM25.2868 16.5368C24.0727 16.9135 21.1421 17.6507 19.5093 17.709C17.1648 17.7927 15.1895 18.3788 13.8575 19.6348C12.5254 20.8908 11.9317 22.4398 11.9317 24.5331C11.9317 25.496 12.3503 27.7567 14.2343 29.3476C15.6927 30.5792 18.4208 31.2316 20.556 30.3942C22.1887 29.7539 23.1516 28.8871 23.9889 27.4218C24.6578 26.2513 24.7425 24.868 24.7425 23.947V19.886C24.7425 18.7138 25.0774 17.0391 25.2868 16.5368Z" fill="#6A8DF5"/>
</svg>
