<svg width="90" height="41" viewBox="0 0 90 41" fill="none" xmlns="http://www.w3.org/2000/svg">
<path d="M2.88866 13.3552C1.72561 14.6345 0.795383 16.2578 0.544189 16.9556V2.13517H2.38627C3.05612 2.13517 4.85634 2.02031 6.53096 2.72129C8.33119 3.47485 9.10993 4.44483 9.62901 5.52628C10.1314 6.57295 10.0058 8.24753 10.0058 9.25231C9.92207 9.25231 9.43643 9.36954 8.16372 9.83843C6.65656 10.3937 4.56328 11.5131 2.88866 13.3552Z" fill="#315FE7"/>
<path fill-rule="evenodd" clip-rule="evenodd" d="M24.7502 0H34.2585V6.74035C34.4893 6.62871 35.1411 6.38473 35.6694 6.23796C36.2978 6.06343 36.7851 5.98516 37.2657 5.90796C37.3615 5.89257 37.4571 5.87723 37.5534 5.86117C38.307 5.73558 39.3536 5.69371 40.9026 5.69371C42.2842 5.69371 43.289 5.77744 44.3775 5.94491C45.466 6.11237 47.0987 6.69848 48.4384 7.4102C49.7781 8.12191 51.0062 8.83363 53.1274 11.22C54.802 13.1039 55.8486 15.7833 56.1835 17.4579C56.5185 19.1325 56.5185 19.8024 56.5185 20.1373V39.2699C55.8905 39.3257 54.3419 39.3955 53.1692 39.3955C51.7458 39.3955 49.6823 38.8093 48.564 37.3441C47.3499 35.7532 47.1406 33.9529 47.0569 33.1156C46.9899 32.4458 47.001 30.7712 47.015 30.0176V20.6397C47.015 19.2581 46.4707 18.044 46.4707 18.044C45.9265 16.7881 44.4193 14.6547 41.6562 14.2761C38.969 13.908 37.3509 15.0479 36.8789 15.3803C36.8656 15.3897 36.8532 15.3985 36.8417 15.4065C36.423 15.6996 35.2926 16.495 34.5809 18.4627C34.4429 18.8442 34.246 19.6768 34.246 19.928V24.9519C34.246 25.6642 34.0785 27.0033 33.7855 28.0499L33.7775 28.0785C33.4852 29.1225 33.0885 30.5398 31.6503 32.697C30.5618 34.3297 28.7198 36.1579 26.5846 37.3441C23.19 39.23 20.8828 39.2469 18.7751 39.2623C18.5434 39.264 18.314 39.2657 18.0859 39.2699C15.7833 39.3117 13.2295 39.0187 10.4664 37.5534C9.83003 37.2185 8.97318 36.6463 8.6243 36.3811C8.16378 37.4697 6.7734 39.0985 5.06573 39.8979C3.31776 40.716 2.26359 40.7083 0.64121 40.6964C0.437286 40.6949 0.224385 40.6933 0 40.6933C0 38.8093 0.00632423 25.5371 0.0418655 24.8263C0.156996 22.5237 0.759859 20.8909 1.38156 19.5093C2.00327 18.1278 3.17482 16.4486 4.56334 15.1135C5.65185 14.0668 7.3043 12.769 9.33601 11.7223C9.57008 11.6018 9.78961 11.4774 10.0138 11.3503C10.9928 10.7957 12.0613 10.1903 14.8204 9.62907C15.4647 9.49802 16.1091 9.38387 16.7436 9.27144C18.7066 8.92366 20.5761 8.59244 22.0631 7.82885C23.6122 7.03341 24.1067 6.27983 24.4835 5.35879C24.7774 4.64056 24.7633 3.73752 24.7534 3.09884C24.7517 2.99294 24.7502 2.89431 24.7502 2.80499V0ZM25.2868 16.5368C24.0727 16.9135 21.1421 17.6507 19.5093 17.709C17.1648 17.7927 15.1895 18.3788 13.8575 19.6348C12.5254 20.8908 11.9317 22.4398 11.9317 24.5331C11.9317 25.496 12.3503 27.7567 14.2343 29.3476C15.6927 30.5792 18.4208 31.2316 20.556 30.3942C22.1887 29.7539 23.1516 28.8871 23.9889 27.4218C24.6578 26.2513 24.7425 24.868 24.7425 23.947V19.886C24.7425 18.7138 25.0774 17.0391 25.2868 16.5368Z" fill="#6A8DF5"/>
<path d="M59.6557 23.8633V17.4374H61.1313C61.4222 17.4374 61.6734 17.4691 61.885 17.5326C62.1018 17.596 62.2817 17.6939 62.4245 17.8261C62.5673 17.9583 62.673 18.1276 62.7418 18.3338C62.8105 18.5348 62.8449 18.7728 62.8449 19.0478C62.8449 19.3123 62.8105 19.5423 62.7418 19.738C62.6783 19.9284 62.5778 20.0792 62.4403 20.1902C62.3081 20.3013 62.1362 20.3727 61.9247 20.4044C62.1838 20.4626 62.3927 20.5631 62.5514 20.7059C62.7101 20.8434 62.8264 21.0232 62.9004 21.2454C62.9798 21.4622 63.0194 21.724 63.0194 22.0307C63.0194 22.3058 62.9877 22.557 62.9242 22.7844C62.8608 23.0118 62.7603 23.2049 62.6228 23.3635C62.4906 23.5222 62.3187 23.6465 62.1071 23.7364C61.9009 23.821 61.6549 23.8633 61.3693 23.8633H59.6557ZM60.5522 23.2207H61.1551C61.5571 23.2207 61.8242 23.1282 61.9564 22.9431C62.0939 22.7527 62.1627 22.4486 62.1627 22.0307C62.1627 21.761 62.1256 21.5362 62.0516 21.3564C61.9828 21.1713 61.8691 21.0338 61.7105 20.9439C61.5571 20.8487 61.3482 20.8011 61.0837 20.8011H60.5522V23.2207ZM60.5522 20.1188H61.0837C61.3376 20.1188 61.5359 20.0844 61.6787 20.0157C61.8215 19.9416 61.922 19.8253 61.9802 19.6666C62.0384 19.508 62.0675 19.3017 62.0675 19.0478C62.0675 18.7517 62.0225 18.5375 61.9326 18.4052C61.8427 18.273 61.7025 18.191 61.5121 18.1593C61.3217 18.1223 61.0731 18.1038 60.7664 18.1038H60.5522V20.1188Z" fill="#6A8DF5"/>
<path d="M65.4583 23.9347C65.0246 23.9347 64.6781 23.8501 64.419 23.6809C64.1598 23.5116 63.9747 23.271 63.8637 22.9589C63.7526 22.6416 63.6971 22.2714 63.6971 21.8483V19.4128C63.6971 18.9897 63.7526 18.6274 63.8637 18.3259C63.98 18.0191 64.1651 17.7864 64.419 17.6278C64.6781 17.4638 65.0246 17.3818 65.4583 17.3818C65.8919 17.3818 66.2357 17.4638 66.4896 17.6278C66.7434 17.7917 66.9259 18.0244 67.037 18.3259C67.1533 18.6274 67.2115 18.9897 67.2115 19.4128V21.8562C67.2115 22.274 67.1533 22.639 67.037 22.951C66.9259 23.2631 66.7434 23.5063 66.4896 23.6809C66.2357 23.8501 65.8919 23.9347 65.4583 23.9347ZM65.4583 23.2287C65.6963 23.2287 65.8761 23.1811 65.9977 23.0859C66.1194 22.9854 66.2013 22.8479 66.2437 22.6733C66.286 22.4935 66.3071 22.2846 66.3071 22.0466V19.2303C66.3071 18.9923 66.286 18.7887 66.2437 18.6194C66.2013 18.4449 66.1194 18.3127 65.9977 18.2228C65.8761 18.1276 65.6963 18.08 65.4583 18.08C65.2203 18.08 65.0378 18.1276 64.9109 18.2228C64.7892 18.3127 64.7072 18.4449 64.6649 18.6194C64.6226 18.7887 64.6015 18.9923 64.6015 19.2303V22.0466C64.6015 22.2846 64.6226 22.4935 64.6649 22.6733C64.7072 22.8479 64.7892 22.9854 64.9109 23.0859C65.0378 23.1811 65.2203 23.2287 65.4583 23.2287Z" fill="#6A8DF5"/>
<path d="M67.7435 23.8633L69.1081 17.4374H69.9728L71.3453 23.8633H70.4964L70.2029 22.2449H68.8939L68.5845 23.8633H67.7435ZM69.0129 21.6023H70.0839L69.5444 18.7067L69.0129 21.6023Z" fill="#6A8DF5"/>
<path d="M71.9973 23.8633V17.4374H73.2904C73.7188 17.4374 74.0732 17.4955 74.3535 17.6119C74.6338 17.723 74.84 17.9054 74.9723 18.1593C75.1098 18.4079 75.1785 18.7358 75.1785 19.143C75.1785 19.3916 75.1521 19.619 75.0992 19.8253C75.0463 20.0263 74.9617 20.1982 74.8453 20.341C74.729 20.4785 74.5756 20.579 74.3852 20.6424L75.2975 23.8633H74.4328L73.5919 20.8487H72.8937V23.8633H71.9973ZM72.8937 20.2061H73.2349C73.4887 20.2061 73.695 20.1744 73.8537 20.1109C74.0123 20.0474 74.1287 19.939 74.2027 19.7856C74.2768 19.6322 74.3138 19.418 74.3138 19.143C74.3138 18.7675 74.245 18.4978 74.1075 18.3338C73.97 18.1646 73.6976 18.08 73.2904 18.08H72.8937V20.2061Z" fill="#6A8DF5"/>
<path d="M76.1111 23.8633V17.4374H77.5074C77.9834 17.4374 78.3589 17.5114 78.6339 17.6595C78.9142 17.8023 79.1126 18.0191 79.2289 18.31C79.3506 18.6009 79.4114 18.9632 79.4114 19.3969V21.761C79.4114 22.2159 79.3506 22.5993 79.2289 22.9113C79.1126 23.2234 78.9195 23.4614 78.6498 23.6253C78.3853 23.784 78.0283 23.8633 77.5788 23.8633H76.1111ZM77.0076 23.2207H77.5153C77.8432 23.2207 78.0759 23.1573 78.2134 23.0303C78.351 22.9034 78.4329 22.7183 78.4594 22.475C78.4911 22.2317 78.507 21.9382 78.507 21.5944V19.508C78.507 19.1748 78.4858 18.905 78.4435 18.6988C78.4012 18.4925 78.3086 18.3418 78.1658 18.2466C78.023 18.1514 77.7983 18.1038 77.4915 18.1038H77.0076V23.2207Z" fill="#6A8DF5"/>
<path d="M80.3423 23.8633V17.4374H81.2229V23.8633H80.3423Z" fill="#6A8DF5"/>
<path d="M82.2625 23.8633V17.4374H82.8734L84.698 21.7055V17.4374H85.4438V23.8633H84.8726L83.0241 19.4762V23.8633H82.2625Z" fill="#6A8DF5"/>
<path d="M87.985 23.9427C87.583 23.9427 87.2604 23.8581 87.0171 23.6888C86.7791 23.5143 86.6046 23.2631 86.4935 22.9351C86.3877 22.6072 86.3348 22.2132 86.3348 21.7531V19.6032C86.3348 19.1324 86.3824 18.7331 86.4776 18.4052C86.5781 18.072 86.7527 17.8182 87.0012 17.6436C87.2551 17.4691 87.6068 17.3818 88.0564 17.3818C88.4583 17.3818 88.7809 17.4506 89.0242 17.5881C89.2728 17.7203 89.4526 17.9266 89.5637 18.2069C89.6748 18.4819 89.7303 18.831 89.7303 19.2541V19.4921H88.8894V19.2938C88.8894 19.0135 88.8709 18.786 88.8338 18.6115C88.7968 18.4317 88.7201 18.2995 88.6038 18.2148C88.4927 18.1249 88.3155 18.08 88.0722 18.08C87.8078 18.08 87.6148 18.1408 87.4931 18.2624C87.3768 18.3841 87.3027 18.5507 87.271 18.7622C87.2445 18.9685 87.2313 19.2038 87.2313 19.4683V21.8483C87.2313 22.155 87.2525 22.4115 87.2948 22.6178C87.3424 22.8241 87.4296 22.9775 87.5566 23.0779C87.6835 23.1784 87.8633 23.2287 88.096 23.2287C88.3287 23.2287 88.5086 23.1731 88.6355 23.0621C88.7624 22.951 88.8497 22.7871 88.8973 22.5702C88.9449 22.3534 88.9687 22.0836 88.9687 21.761V21.3168H88.1516V20.6821H89.7779V23.8633H89.2146L89.1274 23.1255C89.0427 23.3635 88.9105 23.5592 88.7307 23.7126C88.5509 23.866 88.3023 23.9427 87.985 23.9427Z" fill="#6A8DF5"/>
<path d="M61.171 31.1356C60.8008 31.1356 60.4914 31.0563 60.2428 30.8976C59.9995 30.7389 59.8144 30.5195 59.6875 30.2391C59.5605 29.9588 59.4865 29.6336 59.4653 29.2634L60.2587 29.0492C60.2745 29.2766 60.3089 29.4961 60.3618 29.7076C60.42 29.9192 60.5125 30.0937 60.6395 30.2312C60.7664 30.3634 60.9436 30.4295 61.171 30.4295C61.4037 30.4295 61.5782 30.3661 61.6946 30.2391C61.8162 30.1069 61.8771 29.9192 61.8771 29.6759C61.8771 29.385 61.8109 29.1523 61.6787 28.9778C61.5465 28.7979 61.3799 28.6181 61.1789 28.4383L60.1 27.4863C59.8884 27.3012 59.7324 27.1002 59.6319 26.8834C59.5314 26.6612 59.4812 26.3889 59.4812 26.0662C59.4812 25.5955 59.6161 25.2306 59.8858 24.9714C60.1555 24.7123 60.5231 24.5827 60.9885 24.5827C61.2424 24.5827 61.4645 24.6171 61.6549 24.6858C61.8506 24.7493 62.0119 24.8498 62.1389 24.9873C62.2711 25.1248 62.3742 25.2993 62.4483 25.5109C62.5276 25.7172 62.5805 25.9605 62.6069 26.2408L61.8453 26.447C61.8295 26.2355 61.7977 26.0424 61.7501 25.8679C61.7025 25.6881 61.6179 25.5453 61.4963 25.4395C61.3799 25.3284 61.2107 25.2729 60.9885 25.2729C60.7664 25.2729 60.5919 25.3337 60.4649 25.4554C60.3433 25.5717 60.2825 25.7463 60.2825 25.979C60.2825 26.1747 60.3142 26.336 60.3777 26.4629C60.4464 26.5898 60.5548 26.7194 60.7029 26.8516L61.7898 27.8036C62.0331 28.0152 62.2473 28.269 62.4324 28.5652C62.6175 28.8561 62.71 29.2025 62.71 29.6045C62.71 29.9218 62.6439 30.1968 62.5117 30.4295C62.3795 30.657 62.197 30.8315 61.9643 30.9531C61.7369 31.0748 61.4725 31.1356 61.171 31.1356Z" fill="#6A8DF5"/>
<path d="M65.0159 31.1356C64.5611 31.1356 64.2067 31.0404 63.9529 30.85C63.7043 30.6596 63.5297 30.4031 63.4293 30.0805C63.3341 29.7579 63.2865 29.3982 63.2865 29.0016V26.7326C63.2865 26.2989 63.3341 25.9208 63.4293 25.5982C63.5297 25.2755 63.7043 25.027 63.9529 24.8524C64.2067 24.6726 64.5611 24.5827 65.0159 24.5827C65.4179 24.5827 65.7352 24.6568 65.9679 24.8048C66.2059 24.9529 66.3752 25.1645 66.4756 25.4395C66.5814 25.7145 66.6343 26.0451 66.6343 26.4312V26.9389H65.7854V26.4867C65.7854 26.2487 65.7722 26.0398 65.7458 25.86C65.7246 25.6749 65.6612 25.5321 65.5554 25.4316C65.4496 25.3311 65.2724 25.2808 65.0238 25.2808C64.77 25.2808 64.5849 25.3364 64.4685 25.4474C64.3522 25.5532 64.2755 25.7066 64.2384 25.9076C64.2067 26.1033 64.1908 26.3333 64.1908 26.5978V29.1444C64.1908 29.467 64.2173 29.7235 64.2702 29.9139C64.3231 30.099 64.4103 30.2312 64.532 30.3105C64.6536 30.3899 64.8176 30.4295 65.0238 30.4295C65.2671 30.4295 65.4417 30.3767 65.5474 30.2709C65.6532 30.1598 65.7193 30.0091 65.7458 29.8187C65.7722 29.6283 65.7854 29.4062 65.7854 29.1523V28.6763H66.6343V29.1523C66.6343 29.5437 66.5867 29.8901 66.4915 30.1915C66.3963 30.4877 66.2324 30.7204 65.9996 30.8897C65.7669 31.0536 65.439 31.1356 65.0159 31.1356Z" fill="#6A8DF5"/>
<path d="M67.4883 31.0642V24.6382H68.3848V27.4149H70.0349V24.6382H70.9314V31.0642H70.0349V28.0575H68.3848V31.0642H67.4883Z" fill="#6A8DF5"/>
<path d="M73.5775 31.1356C73.1438 31.1356 72.7974 31.051 72.5382 30.8817C72.2791 30.7125 72.094 30.4719 71.9829 30.1598C71.8718 29.8425 71.8163 29.4723 71.8163 29.0492V26.6136C71.8163 26.1905 71.8718 25.8282 71.9829 25.5268C72.0993 25.22 72.2844 24.9873 72.5382 24.8286C72.7974 24.6647 73.1438 24.5827 73.5775 24.5827C74.0112 24.5827 74.355 24.6647 74.6088 24.8286C74.8627 24.9926 75.0451 25.2253 75.1562 25.5268C75.2726 25.8282 75.3307 26.1905 75.3307 26.6136V29.0571C75.3307 29.4749 75.2726 29.8398 75.1562 30.1519C75.0451 30.4639 74.8627 30.7072 74.6088 30.8817C74.355 31.051 74.0112 31.1356 73.5775 31.1356ZM73.5775 30.4295C73.8155 30.4295 73.9953 30.3819 74.117 30.2867C74.2386 30.1863 74.3206 30.0487 74.3629 29.8742C74.4052 29.6944 74.4264 29.4855 74.4264 29.2475V26.4312C74.4264 26.1932 74.4052 25.9895 74.3629 25.8203C74.3206 25.6458 74.2386 25.5135 74.117 25.4236C73.9953 25.3284 73.8155 25.2808 73.5775 25.2808C73.3395 25.2808 73.157 25.3284 73.0301 25.4236C72.9084 25.5135 72.8265 25.6458 72.7842 25.8203C72.7418 25.9895 72.7207 26.1932 72.7207 26.4312V29.2475C72.7207 29.4855 72.7418 29.6944 72.7842 29.8742C72.8265 30.0487 72.9084 30.1863 73.0301 30.2867C73.157 30.3819 73.3395 30.4295 73.5775 30.4295Z" fill="#6A8DF5"/>
<path d="M77.854 31.1356C77.4203 31.1356 77.0739 31.051 76.8148 30.8817C76.5556 30.7125 76.3705 30.4719 76.2594 30.1598C76.1484 29.8425 76.0928 29.4723 76.0928 29.0492V26.6136C76.0928 26.1905 76.1484 25.8282 76.2594 25.5268C76.3758 25.22 76.5609 24.9873 76.8148 24.8286C77.0739 24.6647 77.4203 24.5827 77.854 24.5827C78.2877 24.5827 78.6315 24.6647 78.8854 24.8286C79.1392 24.9926 79.3217 25.2253 79.4328 25.5268C79.5491 25.8282 79.6073 26.1905 79.6073 26.6136V29.0571C79.6073 29.4749 79.5491 29.8398 79.4328 30.1519C79.3217 30.4639 79.1392 30.7072 78.8854 30.8817C78.6315 31.051 78.2877 31.1356 77.854 31.1356ZM77.854 30.4295C78.092 30.4295 78.2719 30.3819 78.3935 30.2867C78.5151 30.1863 78.5971 30.0487 78.6394 29.8742C78.6817 29.6944 78.7029 29.4855 78.7029 29.2475V26.4312C78.7029 26.1932 78.6817 25.9895 78.6394 25.8203C78.5971 25.6458 78.5151 25.5135 78.3935 25.4236C78.2719 25.3284 78.092 25.2808 77.854 25.2808C77.616 25.2808 77.4336 25.3284 77.3066 25.4236C77.185 25.5135 77.103 25.6458 77.0607 25.8203C77.0184 25.9895 76.9972 26.1932 76.9972 26.4312V29.2475C76.9972 29.4855 77.0184 29.6944 77.0607 29.8742C77.103 30.0487 77.185 30.1863 77.3066 30.2867C77.4336 30.3819 77.616 30.4295 77.854 30.4295Z" fill="#6A8DF5"/>
<path d="M80.4884 31.0642V24.6382H81.3848V30.4216H83.027V31.0642H80.4884Z" fill="#6A8DF5"/>
</svg>
